<svg width="976" height="977" xmlns="http://www.w3.org/2000/svg" xmlns:xlink="http://www.w3.org/1999/xlink" overflow="hidden"><defs><clipPath id="clip0"><rect x="1227" y="83" width="976" height="977"/></clipPath><linearGradient x1="2201.01" y1="571.965" x2="1228.01" y2="571.965" gradientUnits="userSpaceOnUse" spreadMethod="reflect" id="fill1"><stop offset="0" stop-color="#FFC746"/><stop offset="0.5" stop-color="#FFC600"/><stop offset="1" stop-color="#E5B600"/></linearGradient></defs><g clip-path="url(#clip0)" transform="translate(-1227 -83)"><path d="M1228.01 571.964C1228.01 302.999 1445.82 84.9643 1714.51 84.9643 1983.2 84.9643 2201.01 302.999 2201.01 571.964 2201.01 840.925 1983.2 1058.96 1714.51 1058.96 1445.82 1058.96 1228.01 840.925 1228.01 571.964Z" stroke="#FFC000" stroke-width="2.29167" stroke-miterlimit="8" fill="url(#fill1)" fill-rule="evenodd"/><path d="M1445.01 375.966C1445.01 329.02 1483.07 290.965 1530.01 290.965 1576.95 290.965 1615.01 329.02 1615.01 375.966 1615.01 422.909 1576.95 460.965 1530.01 460.965 1483.07 460.965 1445.01 422.909 1445.01 375.966Z" stroke="#2C2C2C" stroke-width="11.8163" stroke-linejoin="round" stroke-miterlimit="10" fill="#2C2C2C" fill-rule="evenodd"/><path d="M1833.01 375.966C1833.01 329.021 1871.07 290.965 1918.01 290.965 1964.96 290.965 2003.01 329.021 2003.01 375.966 2003.01 422.909 1964.96 460.965 1918.01 460.965 1871.07 460.965 1833.01 422.909 1833.01 375.966Z" stroke="#2C2C2C" stroke-width="11.8163" stroke-linejoin="round" stroke-miterlimit="10" fill="#2C2C2C" fill-rule="evenodd"/><path d="M1934.02 719.52C1935.74 719.606 1939.51 719.929 1942.8 721.181 1943.27 721.291 1943.76 721.411 1944.25 721.545 1958.27 725.39 1951.26 733.079 1951.26 733.079 1942.13 743.069 1941.51 750.342 1935.43 760.555 1930.18 769.369 1923.21 770.679 1915.38 778.155 1907.42 785.748 1904.6 795.006 1896.28 802.506 1893.56 804.954 1888.62 806.546 1886.16 809.073 1882.84 812.474 1883.18 816.818 1879.2 820.002 1873.4 824.655 1855.94 830.346 1848.5 834.765 1826.48 847.86 1813.47 872.351 1779.61 878.307 1769.43 880.099 1758.33 879.411 1747.7 879.965 1717.13 879.71 1687.1 872.595 1658.16 866.842L1648.89 867.362C1648.89 867.362 1635.33 867.362 1633.43 860.443 1628.6 859.793 1625.27 857.967 1625.27 857.967 1605.24 846.963 1580.51 834.026 1566.27 820.569 1560.74 815.342 1557.79 809.242 1550.95 804.51 1543.29 799.214 1532.54 796.058 1525.43 790.428 1517.48 784.142 1514.89 776.157 1512.29 768.64 1508.85 758.712 1490.14 734.809 1499.71 725.885 1510.14 716.146 1546.27 717.216 1563.21 717.199 1604.78 717.199 1646.09 718.003 1687.47 719.51 1731.36 721.109 1778.02 718.327 1822.32 718.347 1860.03 718.361 1898.01 712.264 1934.02 719.523Z" fill="#EC4272" fill-rule="evenodd"/><path d="M1491.01 735.964 1927.01 735.964 1927.01 777.964 1491.01 777.964Z" stroke="#FFFFFF" stroke-width="11.8163" stroke-miterlimit="8" fill="#FFFFFF" fill-rule="evenodd"/><path d="M1507.27 708.146C1507.27 710.691 1507.36 713.233 1507.54 715.77 1513.41 797.702 1610.6 860.71 1724.63 856.498 1838.65 852.289 1926.34 782.454 1920.48 700.523L1962.72 698.965C1962.92 702.022 1963.01 705.086 1963.01 708.146 1963.01 813.532 1851.53 898.965 1714.01 898.965 1576.49 898.965 1465.01 813.532 1465.01 708.146Z" stroke="#2C2C2C" stroke-width="11.8163" stroke-linejoin="round" stroke-miterlimit="10" fill="#2C2C2C" fill-rule="evenodd"/><path d="M1467.01 698.965 1957.01 698.965 1957.01 739.965 1467.01 739.965Z" stroke="#2C2C2C" stroke-width="11.8163" stroke-miterlimit="8" fill="#2C2C2C" fill-rule="evenodd"/></g></svg>